<svg version="1.1" id="Layer_1" xmlns="http://www.w3.org/2000/svg" xmlns:xlink="http://www.w3.org/1999/xlink" x="0px" y="0px"
	 width="100%" viewBox="0 0 160 256" enable-background="new 0 0 160 256" xml:space="preserve">
<path fill="#000000" opacity="1.000000" stroke="none" 
	d="
M122.149025,136.193863 
	C123.458206,143.623810 125.450233,150.583832 123.424454,157.812271 
	C122.629456,160.649033 121.513878,163.392151 118.883102,164.696823 
	C115.801903,166.224854 115.101501,168.438629 115.250572,171.553986 
	C115.629005,179.462662 114.236076,187.305832 113.586594,195.557114 
	C118.065475,195.023224 119.844574,192.328491 121.169136,189.223358 
	C122.972061,184.996765 125.723907,182.044327 130.667969,182.870667 
	C135.802185,183.728775 137.517883,187.840759 138.181564,192.312500 
	C139.794968,203.183273 131.430054,213.110367 119.865097,214.279160 
	C118.540092,214.413086 117.173050,214.713196 115.885178,214.525909 
	C111.569664,213.898331 108.512535,215.179474 105.702019,218.820297 
	C102.820404,222.553238 98.104897,221.948517 94.078156,220.814697 
	C90.174286,219.715485 89.386986,215.970398 88.776314,212.446899 
	C88.376457,210.139847 89.385513,207.358948 86.392250,205.663666 
	C84.488518,207.711105 85.602859,210.217590 85.038307,212.344345 
	C83.954292,216.427902 83.211807,220.638763 77.853371,221.300461 
	C71.409210,222.096268 67.249077,220.101151 64.721840,214.657455 
	C62.309849,209.462036 61.695278,203.788589 60.719143,198.231293 
	C59.161915,189.365723 58.254986,180.434143 58.692959,171.417068 
	C58.824814,168.702377 58.192055,166.795715 55.519829,165.332642 
	C50.924423,162.816589 49.707554,158.220154 49.701450,153.367752 
	C49.679646,136.020340 55.023571,120.332260 64.667999,106.024887 
	C65.762245,104.401581 66.930153,102.827927 68.733177,100.288712 
	C59.842564,99.753326 53.322830,94.987961 45.608807,92.062111 
	C45.456905,87.113762 46.980335,80.971901 41.028538,77.172058 
	C41.038769,77.008469 40.991974,76.735931 41.066875,76.696899 
	C49.064449,72.528625 45.942062,65.366058 44.996693,59.487701 
	C43.428703,49.737850 41.928177,40.150776 43.572445,30.257475 
	C44.341335,25.631170 46.594856,23.691227 51.236511,23.592182 
	C59.867767,23.407999 67.707237,25.664551 74.752815,30.556047 
	C76.528114,31.788570 78.113548,32.436024 80.272926,31.844854 
	C81.861557,31.409939 83.707924,30.877562 85.195244,31.283438 
	C93.609276,33.579536 100.391869,29.624043 107.471733,26.168341 
	C111.990501,23.962713 117.011871,23.401777 122.100220,23.620459 
	C127.480057,23.851667 129.783585,25.728977 130.263229,30.940992 
	C131.183273,40.938679 130.996811,50.863625 128.166977,60.613476 
	C127.048302,64.467751 128.539597,68.429276 127.708397,72.431160 
	C127.104050,75.340866 131.845352,74.062622 132.610413,77.017586 
	C127.631378,80.795471 127.738075,86.492073 127.859253,92.109131 
	C120.494377,94.802727 114.058319,99.788773 104.488235,100.119980 
	C113.789207,111.331474 118.880531,123.121071 122.149025,136.193863 
M62.446617,183.027954 
	C62.744141,185.333588 63.023472,187.641724 63.342552,189.944366 
	C64.346321,197.188156 65.522949,204.390640 67.531960,211.448502 
	C68.718170,215.615753 72.567085,216.742447 75.479454,216.545105 
	C78.150742,216.364105 80.805435,214.194031 81.051926,209.829575 
	C81.474983,202.338745 81.574234,194.861786 81.687645,187.373779 
	C81.715355,185.544357 81.721634,183.700562 81.955727,181.891571 
	C82.305962,179.185120 83.972260,177.798691 86.714348,177.749863 
	C89.419327,177.701660 91.003654,178.805206 91.544952,181.667892 
	C92.045433,184.314697 92.230492,186.943893 92.246002,189.609970 
	C92.281868,195.775299 92.158340,201.947357 92.423752,208.102707 
	C92.530220,210.571899 92.203590,213.470306 95.052643,215.073898 
	C100.175804,217.957489 104.782455,216.156738 106.477333,210.166901 
	C109.799301,198.426834 111.098358,186.333725 111.613251,174.205353 
	C112.374466,156.274536 109.838493,138.721146 104.430634,121.591599 
	C103.827148,119.680038 102.871445,117.696457 104.591805,114.700111 
	C113.693489,129.387634 113.208664,145.584900 115.935287,161.235306 
	C119.646950,158.653152 119.928902,155.282501 119.866783,151.946426 
	C119.522209,133.442383 112.954430,117.225494 101.623421,102.772110 
	C100.106262,100.836884 98.380699,100.513245 95.973312,100.623390 
	C89.837738,100.904114 83.669014,100.932152 77.537735,100.606316 
	C75.032784,100.473183 73.357437,101.133858 71.917198,102.935295 
	C60.757088,116.894196 54.912704,132.962296 53.452160,150.630508 
	C53.137196,154.440628 54.263897,158.262314 57.403358,161.245224 
	C59.170635,159.331390 58.513638,157.581024 58.658268,155.993546 
	C59.685566,144.717834 60.997322,133.484863 64.800842,122.740555 
	C65.722298,120.137573 66.332077,117.015411 70.850548,115.516350 
	C67.978546,127.097824 64.570389,137.656677 63.239708,148.680542 
	C61.894722,159.822876 62.195576,170.949234 62.446617,183.027954 
M49.459522,78.779350 
	C47.262230,81.562706 49.838051,83.218216 50.654251,85.170494 
	C54.526440,85.691216 58.043266,81.752533 61.840580,85.025528 
	C60.313797,88.699158 55.358963,86.865173 53.903286,90.235764 
	C64.199310,99.616318 112.340080,99.228996 119.767761,89.809685 
	C117.870064,87.131653 113.032806,88.953247 111.883652,84.714882 
	C115.180565,82.138779 117.998665,84.599968 120.872795,85.268272 
	C122.380363,85.618820 123.517151,85.528374 124.151329,83.983261 
	C124.731026,82.570892 125.101044,81.050735 124.472763,79.617645 
	C123.770981,78.016876 122.259239,78.268097 121.017517,78.757393 
	C119.016518,79.545860 117.101883,80.555122 115.157562,81.485298 
	C113.722298,82.171921 111.999962,83.762672 110.864029,81.669075 
	C109.775536,79.662910 111.958679,78.769241 113.317612,78.015816 
	C115.342934,76.892914 117.462166,75.544449 119.673447,75.234863 
	C124.145035,74.608833 125.022842,71.805534 124.695412,68.169449 
	C124.200264,62.670944 124.614304,57.289528 125.590378,51.856030 
	C126.766762,45.307499 127.274834,38.689423 126.120392,32.020111 
	C125.464287,28.229822 123.333069,27.079712 119.778214,27.485851 
	C112.747337,28.289122 106.050224,30.014795 100.119362,34.081085 
	C98.889183,34.924522 97.595741,36.122265 96.080139,35.833714 
	C86.398163,33.990387 75.767120,38.119778 66.884430,30.754082 
	C63.971889,28.338945 59.722454,28.386343 55.910465,27.877195 
	C49.270390,26.990316 47.719196,28.421955 47.257900,35.133621 
	C46.431892,47.151711 50.151669,58.883636 49.252148,70.887138 
	C49.044498,73.658051 50.839825,74.290367 53.196690,74.975098 
	C57.131531,76.118263 61.438660,77.130890 63.336739,81.530556 
	C61.184448,83.534920 59.835197,82.206635 58.425259,81.453011 
	C55.799809,80.049690 53.302166,78.283974 49.459522,78.779350 
M111.104851,208.691620 
	C112.611343,213.061172 116.177231,210.727600 118.618591,210.599899 
	C128.777969,210.068481 136.565216,200.838974 134.405945,192.252060 
	C133.802933,189.854034 132.952759,187.155624 130.035721,186.704865 
	C127.028603,186.240219 125.606758,188.609100 124.524765,190.903702 
	C123.146889,193.825790 121.701141,197.180801 118.513824,197.848663 
	C112.631973,199.081116 111.715027,203.210434 111.104851,208.691620 
M85.324631,190.526123 
	C85.343086,197.849884 85.343086,197.849884 87.909721,200.030319 
	C87.042549,193.654907 89.745880,187.697739 87.286263,180.745453 
	C84.511314,184.109360 85.634544,187.000549 85.324631,190.526123 
z"/>
<path fill="#000000" opacity="1.000000" stroke="none" 
	d="
M74.560829,70.010612 
	C75.223785,70.329071 75.535240,70.476418 75.769890,70.703232 
	C78.202850,73.054886 79.037415,75.730553 76.988274,78.694702 
	C75.544182,80.783623 73.480164,81.936081 70.971771,80.688484 
	C68.271164,79.345299 67.221825,76.878120 67.869835,74.003860 
	C68.600189,70.764389 70.834938,69.363937 74.560829,70.010612 
z"/>
<path fill="#000000" opacity="1.000000" stroke="none" 
	d="
M96.744812,71.923569 
	C99.844818,68.865372 102.703499,68.866196 104.973999,72.115074 
	C106.970306,74.971596 106.359230,77.820526 103.664513,80.054947 
	C101.939705,81.485130 99.978783,81.654442 98.179909,80.238899 
	C95.450233,78.090935 95.014282,75.351059 96.744812,71.923569 
z"/>
<path fill="#000000" opacity="1.000000" stroke="none" 
	d="
M54.099560,35.386353 
	C52.469471,35.487198 50.865105,36.036068 50.903648,33.883427 
	C50.936028,32.075329 52.239887,31.344383 53.861889,31.164948 
	C58.053513,30.701244 66.193146,37.500641 66.917168,42.637131 
	C61.637733,41.767738 59.442360,35.955063 54.099560,35.386353 
z"/>
<path fill="#000000" opacity="1.000000" stroke="none" 
	d="
M122.675201,33.323723 
	C122.939781,34.330315 122.791183,35.364635 122.204933,35.283096 
	C116.835785,34.536316 113.778069,38.163754 110.411079,41.270462 
	C109.460686,42.147381 108.349724,43.360630 107.034752,42.073215 
	C105.759590,40.824768 106.754669,39.602020 107.701256,38.660927 
	C110.395706,35.982101 113.118217,33.265228 116.777649,31.946503 
	C118.779480,31.225121 120.995651,30.595001 122.675201,33.323723 
z"/>
</svg>