<svg version="1.1" id="Layer_1" xmlns="http://www.w3.org/2000/svg" xmlns:xlink="http://www.w3.org/1999/xlink" x="0px" y="0px"
	 width="100%" viewBox="0 0 256 256" enable-background="new 0 0 256 256" xml:space="preserve">
<path fill="#000000" opacity="1.000000" stroke="none" 
	d="
M257.000000,163.555832 
	C253.222015,158.950653 249.633774,153.751831 244.295731,150.095795 
	C242.588135,148.926254 242.153885,146.882202 241.630020,144.896759 
	C237.555527,129.454681 227.956680,118.527496 213.774216,111.551468 
	C207.942337,108.682892 206.697174,109.426003 206.511551,115.616409 
	C206.330048,121.669090 205.724640,127.594162 202.544434,132.894653 
	C201.577698,134.505920 202.583893,135.674698 203.610397,138.098328 
	C193.251495,133.405746 184.177994,138.144775 174.873413,138.665543 
	C170.847763,138.890823 167.465302,140.904877 164.423706,143.905685 
	C161.767975,146.525818 158.085541,148.074997 154.995178,150.290482 
	C145.080978,157.398010 142.510132,168.078705 141.130783,179.290237 
	C140.989670,180.437302 141.024658,181.626221 141.134552,182.780823 
	C142.102173,192.947021 135.048996,194.646393 126.228279,193.188492 
	C124.930412,195.392532 126.109245,196.215393 128.080032,197.082458 
	C133.813293,199.604813 139.826523,199.191345 145.783783,198.869720 
	C150.862411,198.595520 154.647446,199.857651 157.529419,204.509064 
	C160.986710,210.089096 166.774460,212.131836 173.084900,211.592560 
	C177.305054,211.231903 181.259720,211.636002 185.400284,212.318268 
	C191.463303,213.317307 197.694366,213.384521 203.745529,211.803543 
	C210.897797,209.934891 218.252853,209.894714 225.527939,209.448334 
	C230.299957,209.155548 234.741150,210.442123 239.002670,213.551407 
	C244.631149,217.658020 250.709198,215.152954 256.660034,212.125092 
	C257.000000,213.714355 257.000000,215.428711 257.000000,217.571533 
	C252.772491,218.724960 248.845947,220.813309 244.341797,220.396378 
	C241.118942,220.098053 237.966019,219.626205 235.416702,217.647324 
	C231.986649,214.984787 228.445145,214.435349 224.217010,215.293167 
	C197.605408,220.692184 171.358063,217.856262 145.078690,212.263367 
	C135.842606,210.297714 126.242287,210.148010 116.565681,210.645386 
	C96.694305,211.666809 76.779327,214.596848 56.846436,211.350189 
	C54.890785,211.031647 52.908825,210.548279 51.089752,209.783188 
	C46.860264,208.004272 42.974075,205.667328 37.894569,206.633377 
	C35.188602,207.148026 32.550411,205.109436 30.336349,203.248154 
	C27.362558,200.748215 24.724812,197.829575 23.256334,194.302231 
	C20.228491,187.029205 16.337877,180.606781 10.647105,174.928421 
	C5.537687,169.830170 5.670616,162.642166 9.369472,157.447937 
	C12.508719,153.039520 19.265936,151.169800 25.711691,153.164825 
	C28.360691,153.984741 30.861240,155.284286 33.789837,156.517471 
	C35.126984,153.438354 36.281841,150.538956 37.624744,147.729431 
	C42.635406,137.246536 49.445541,128.750656 61.762806,126.669167 
	C64.216377,126.254532 64.555145,124.699112 64.579575,122.732040 
	C64.633354,118.401711 64.544220,114.063225 64.784119,109.743095 
	C65.126564,103.576385 66.447250,102.420769 72.521873,101.567245 
	C76.994728,100.938782 81.389153,100.593361 85.925102,101.284058 
	C89.965744,101.899330 91.650696,104.225815 92.208595,107.863045 
	C92.435188,109.340302 92.536934,110.836609 92.699471,112.323807 
	C93.073959,115.750404 94.467888,117.520081 98.282494,116.204185 
	C99.968292,115.622658 101.857323,115.630257 103.744156,115.357376 
	C104.035049,113.366692 104.091270,111.400963 104.633041,109.579659 
	C106.087502,104.690109 107.250534,100.045319 100.064148,98.826973 
	C101.557838,96.047562 103.269188,97.290245 104.716736,97.616974 
	C109.757271,98.754692 113.294350,97.095245 114.576294,92.303436 
	C116.118149,86.540062 119.352333,82.078339 124.053284,78.645653 
	C126.033188,77.199905 126.826721,75.507347 126.695190,73.140747 
	C126.469208,69.074699 127.406975,65.164856 128.898636,61.446354 
	C130.995911,56.218201 135.146561,54.613319 140.163666,57.062515 
	C146.001328,59.912285 150.439987,64.331863 153.872101,69.833771 
	C154.982742,71.614227 156.067368,74.071693 158.723877,73.301620 
	C161.214432,72.579651 160.588882,70.015755 160.601395,68.133095 
	C160.622833,64.908539 161.260849,61.861271 162.446625,58.894611 
	C165.112930,52.223785 169.603531,50.468658 175.943802,53.964020 
	C187.136230,60.134357 192.817139,70.622467 197.304642,81.949043 
	C199.461807,87.393784 200.439224,93.138046 201.279709,98.903236 
	C201.710236,101.856361 202.569275,104.130951 206.125122,104.898727 
	C226.168610,109.226540 239.064514,121.792145 245.151901,140.944748 
	C247.273712,147.620575 253.387665,150.245316 256.714691,155.827637 
	C257.000000,158.370560 257.000000,160.741104 257.000000,163.555832 
M67.396774,186.022232 
	C67.396774,191.782166 67.396774,197.542114 67.396774,203.989960 
	C61.716694,202.004684 59.289631,197.692657 57.742413,192.981537 
	C53.228836,179.238205 57.559406,167.414169 66.524864,156.964417 
	C69.204514,153.841125 72.727554,151.440964 75.867065,148.712814 
	C81.132385,144.137421 81.145340,138.683517 75.656853,134.434799 
	C69.735451,129.850967 63.313919,129.076675 56.473057,132.482834 
	C50.062954,135.674530 45.729671,140.832321 42.579353,147.054718 
	C38.333755,155.440460 35.818813,164.274857 34.775143,173.706375 
	C33.329182,186.773270 38.171787,197.414337 49.445965,204.067078 
	C57.835297,209.017502 66.952202,210.094681 76.418350,209.507156 
	C85.717407,208.929977 95.013458,208.302612 104.308670,207.665802 
	C110.851219,207.217575 117.390167,206.716690 123.752663,206.252319 
	C124.133369,203.922897 123.016571,202.744415 122.474197,201.384476 
	C118.148354,190.537582 122.138321,178.051971 131.843811,173.414871 
	C135.366791,171.731674 137.015259,169.486786 138.083817,165.802429 
	C144.744980,142.834808 168.638245,127.725021 192.215805,131.432159 
	C196.406738,132.091095 198.999466,130.497742 200.513733,126.818024 
	C201.925980,123.386177 202.103271,119.780930 202.071396,116.071976 
	C202.016174,109.646553 197.609650,104.538895 196.914124,98.482422 
	C195.906113,89.704926 192.975601,81.684265 189.064270,73.918045 
	C185.790665,67.418098 181.566391,61.707809 175.164902,57.915024 
	C170.570740,55.193050 167.765976,56.091583 165.735229,61.015301 
	C164.779388,63.332783 164.369873,65.774994 164.210175,68.307602 
	C164.035446,71.078377 164.493210,73.969872 162.953384,77.130966 
	C156.475952,76.305695 149.823914,75.836769 143.239777,76.548187 
	C137.812714,77.134590 132.636276,78.714630 127.503906,80.983391 
	C118.805260,84.828606 121.171989,95.717461 114.160484,100.351555 
	C113.931747,100.502747 113.734512,100.956818 113.785049,101.219109 
	C113.874214,101.681847 114.083076,102.181213 114.396233,102.524338 
	C114.709908,102.868011 115.212418,103.039337 116.277245,103.665627 
	C116.534393,103.172508 116.788147,102.539032 117.164825,101.989861 
	C118.534157,99.993462 120.077782,98.153938 122.870827,99.075180 
	C125.425461,99.917778 126.148232,102.053871 126.569672,104.510010 
	C126.950684,106.730461 126.819626,108.855515 126.073372,110.902641 
	C125.239815,113.189285 123.847092,115.215614 121.093948,115.068192 
	C118.630898,114.936295 117.028160,113.104469 116.775734,110.863251 
	C116.363503,107.203049 113.965942,105.902740 111.005051,105.011703 
	C110.748657,104.934547 110.304123,105.482559 109.970001,105.723572 
	C110.476173,107.498657 113.209656,106.235062 113.188202,108.551636 
	C112.808228,110.749458 109.885223,110.452263 109.064682,112.278435 
	C108.741089,115.695030 112.433533,116.998306 113.372520,120.381233 
	C108.658318,119.592613 104.418434,118.880928 100.139343,119.395157 
	C93.810677,120.155685 92.161812,122.881065 94.429451,128.908493 
	C99.249283,128.851425 104.330544,128.150452 109.128853,132.699203 
	C105.272331,133.628296 102.773170,132.233459 100.186104,132.104706 
	C95.960098,131.894409 93.124580,132.639053 92.873268,137.748535 
	C92.684372,141.589096 90.669380,144.345947 86.242569,144.365860 
	C84.787506,144.372406 83.634834,144.930756 83.601471,147.147491 
	C85.541397,148.210602 88.107109,148.964233 89.719109,150.636948 
	C92.994728,154.035965 96.083908,153.836975 100.309662,152.406342 
	C108.335754,149.689117 119.229355,153.252014 123.882690,159.420609 
	C125.274773,161.265991 126.998398,163.207626 125.747017,165.885361 
	C124.199371,165.702118 123.824356,164.682419 123.251083,163.904297 
	C119.329063,158.580795 113.840881,156.111313 107.468803,155.426529 
	C101.097244,154.741806 98.265144,157.777863 99.345451,163.918030 
	C101.650475,177.019119 98.292221,188.972275 91.875832,200.265259 
	C91.034554,201.745926 90.281677,203.620621 88.044853,203.754593 
	C86.898872,201.899872 88.243004,200.517227 88.840714,199.085449 
	C92.442474,190.457642 95.389977,181.686859 96.323524,172.284714 
	C97.101372,164.450592 93.317902,156.654999 86.457115,153.007553 
	C80.686325,149.939560 74.068008,152.567841 73.659348,158.975250 
	C73.074684,168.142273 68.963745,176.294006 67.396774,186.022232 
M62.662125,170.246246 
	C59.465767,178.333191 58.633743,186.379852 63.079777,194.380341 
	C61.946369,182.764465 68.998741,172.636108 69.197289,161.209625 
	C66.200409,163.490463 64.490471,166.449341 62.662125,170.246246 
z"/>
<path fill="#000000" opacity="1.000000" stroke="none" 
	d="
M139.980621,120.983246 
	C133.819916,120.930138 128.135406,121.017235 122.971634,123.786766 
	C120.171379,125.288643 117.259064,127.073486 117.305244,130.750992 
	C117.355545,134.756958 120.769325,135.614548 123.762413,136.648834 
	C127.377388,137.898010 131.042557,139.028381 134.209534,141.271072 
	C135.941650,142.497681 137.568695,143.830719 137.834274,146.204681 
	C135.580383,147.118942 134.402802,145.611786 133.067856,144.831390 
	C129.180038,142.558594 125.209343,140.527176 120.842491,139.297104 
	C117.151222,138.257309 113.927498,136.441772 113.345596,132.219040 
	C112.763084,127.991928 114.945152,124.871109 118.178543,122.452332 
	C123.493439,118.476448 129.804794,117.570549 136.125381,117.347122 
	C143.451248,117.088135 150.716705,117.996155 157.655121,120.603592 
	C159.120865,121.154419 160.972443,121.415047 161.259384,124.586472 
	C154.150711,123.319901 147.514740,120.501137 139.980621,120.983246 
z"/>
<path fill="#000000" opacity="1.000000" stroke="none" 
	d="
M159.202042,107.828873 
	C158.705017,109.833382 158.389404,111.486557 157.724808,112.984932 
	C156.773682,115.129272 155.017868,116.330254 152.592346,116.246223 
	C150.346527,116.168427 148.883865,114.836281 148.032745,112.903786 
	C146.651581,109.767845 146.227737,106.537163 147.497696,103.219734 
	C148.520187,100.548752 150.004440,98.585091 153.246994,98.641762 
	C156.514786,98.698883 157.973679,100.706146 158.699860,103.485275 
	C159.030975,104.752426 159.061005,106.098251 159.202042,107.828873 
z"/>
<path fill="#000000" opacity="1.000000" stroke="none" 
	d="
M183.349747,85.054550 
	C182.636047,88.393677 181.064682,86.499092 180.165833,85.758026 
	C177.460831,83.527817 174.592911,81.580956 171.526901,79.900772 
	C169.587219,78.837814 168.623123,77.165184 168.851868,74.969749 
	C169.089447,72.689789 169.038483,69.999405 171.718597,69.132141 
	C174.117966,68.355728 175.828217,70.138321 177.153519,71.844109 
	C180.126511,75.670685 182.489441,79.837570 183.349747,85.054550 
z"/>
<path fill="#000000" opacity="1.000000" stroke="none" 
	d="
M162.679321,112.612488 
	C169.113281,109.383308 175.379883,107.329697 182.316101,109.384338 
	C176.330704,112.293465 169.716263,113.152153 163.619415,115.685150 
	C161.158920,116.707382 160.244812,114.949760 162.679321,112.612488 
z"/>
<path fill="#000000" opacity="1.000000" stroke="none" 
	d="
M164.859100,119.258301 
	C163.986237,117.701912 164.802277,116.917114 165.840683,117.081985 
	C170.379211,117.802605 174.809982,118.867500 178.161667,124.507561 
	C172.849701,123.209297 168.950226,121.483131 164.859100,119.258301 
z"/>
</svg>