<svg width="24" height="24" viewBox="0 0 24 24" fill="none" xmlns="http://www.w3.org/2000/svg">
<path d="M20.6952 7.88178L14.0351 2.70156C13.4507 2.24687 12.7313 2 11.9908 2C11.2503 2 10.5309 2.24687 9.94641 2.70156L3.28506 7.88178C2.88474 8.1931 2.56085 8.59179 2.33813 9.04739C2.11542 9.503 1.99976 10.0035 2 10.5106V19.5023C2 20.1647 2.26315 20.8 2.73156 21.2684C3.19997 21.7369 3.83526 22 4.49769 22H19.4839C20.1463 22 20.7816 21.7369 21.25 21.2684C21.7184 20.8 21.9816 20.1647 21.9816 19.5023V10.5106C21.9816 9.4828 21.507 8.51245 20.6952 7.88178Z" stroke="#0C0C0C" stroke-width="3" stroke-linecap="round" stroke-linejoin="round"/>
<path d="M16.9487 15.7369C14.1887 17.4017 9.71534 17.4017 6.95789 15.7369" stroke="#0C0C0C" stroke-width="3" stroke-linecap="round" stroke-linejoin="round"/>
</svg>
