<svg width="70" height="32" viewBox="0 0 70 32" fill="none" xmlns="http://www.w3.org/2000/svg">
<path d="M0 14.6721V0.327868H7.11645C8.49609 0.327868 9.68569 0.546448 10.6852 0.983606C11.6988 1.42076 12.4802 2.04918 13.0292 2.86885C13.5783 3.67486 13.8528 4.63115 13.8528 5.7377C13.8528 6.84426 13.5783 7.80055 13.0292 8.60656C12.4802 9.41257 11.6988 10.041 10.6852 10.4918C9.68569 10.929 8.49609 11.1475 7.11645 11.1475H2.76633L4.98362 9.07787V14.6721H0ZM4.98362 9.61066L2.76633 7.41803H6.79969C7.48952 7.41803 7.99632 7.26776 8.32012 6.96721C8.65799 6.66667 8.82693 6.25683 8.82693 5.7377C8.82693 5.21858 8.65799 4.80874 8.32012 4.5082C7.99632 4.20765 7.48952 4.05738 6.79969 4.05738H2.76633L4.98362 1.86475V9.61066Z" fill="#0C0C0C"/>
<path d="M24.4992 15C23.3026 15 22.1904 14.8156 21.1628 14.4467C20.1491 14.0779 19.2693 13.5587 18.5231 12.8893C17.777 12.2063 17.1927 11.4071 16.7704 10.4918C16.3621 9.5765 16.158 8.57924 16.158 7.5C16.158 6.4071 16.3621 5.40984 16.7704 4.5082C17.1927 3.5929 17.777 2.80055 18.5231 2.13115C19.2693 1.44809 20.1491 0.922131 21.1628 0.553279C22.1904 0.184426 23.3026 0 24.4992 0C25.71 0 26.8221 0.184426 27.8357 0.553279C28.8494 0.922131 29.7292 1.44809 30.4754 2.13115C31.2215 2.80055 31.7987 3.5929 32.207 4.5082C32.6293 5.40984 32.8405 6.4071 32.8405 7.5C32.8405 8.57924 32.6293 9.5765 32.207 10.4918C31.7987 11.4071 31.2215 12.2063 30.4754 12.8893C29.7292 13.5587 28.8494 14.0779 27.8357 14.4467C26.8221 14.8156 25.71 15 24.4992 15ZM24.4992 11.0861C24.9638 11.0861 25.3932 11.0041 25.7874 10.8402C26.1956 10.6762 26.5476 10.444 26.8432 10.1434C27.153 9.82924 27.3923 9.45355 27.5612 9.01639C27.7302 8.56557 27.8146 8.06011 27.8146 7.5C27.8146 6.93989 27.7302 6.44126 27.5612 6.0041C27.3923 5.55328 27.153 5.1776 26.8432 4.87705C26.5476 4.56284 26.1956 4.32377 25.7874 4.15984C25.3932 3.9959 24.9638 3.91393 24.4992 3.91393C24.0347 3.91393 23.5983 3.9959 23.19 4.15984C22.7958 4.32377 22.4439 4.56284 22.1341 4.87705C21.8385 5.1776 21.6062 5.55328 21.4373 6.0041C21.2683 6.44126 21.1839 6.93989 21.1839 7.5C21.1839 8.06011 21.2683 8.56557 21.4373 9.01639C21.6062 9.45355 21.8385 9.82924 22.1341 10.1434C22.4439 10.444 22.7958 10.6762 23.19 10.8402C23.5983 11.0041 24.0347 11.0861 24.4992 11.0861Z" fill="#0C0C0C"/>
<path d="M32.8405 31.8893V17.5451H36.9372L42.85 26.9098H40.696L46.4399 17.5451H50.5366L50.5788 31.8893H46.0387L45.9964 24.1844H46.7144L42.7866 30.5984H40.5905L36.4937 24.1844H37.3807V31.8893H32.8405Z" fill="#0C0C0C"/>
<path d="M61.2253 31.8893C60.0287 31.8893 58.9165 31.7049 57.8888 31.3361C56.8752 30.9672 55.9953 30.4481 55.2492 29.7787C54.503 29.0956 53.9188 28.2964 53.4965 27.3811C53.0882 26.4658 52.8841 25.4686 52.8841 24.3893C52.8841 23.2964 53.0882 22.2992 53.4965 21.3975C53.9188 20.4822 54.503 19.6899 55.2492 19.0205C55.9953 18.3374 56.8752 17.8115 57.8888 17.4426C58.9165 17.0738 60.0287 16.8893 61.2253 16.8893C62.436 16.8893 63.5482 17.0738 64.5618 17.4426C65.5754 17.8115 66.4553 18.3374 67.2014 19.0205C67.9476 19.6899 68.5248 20.4822 68.933 21.3975C69.3554 22.2992 69.5665 23.2964 69.5665 24.3893C69.5665 25.4686 69.3554 26.4658 68.933 27.3811C68.5248 28.2964 67.9476 29.0956 67.2014 29.7787C66.4553 30.4481 65.5754 30.9672 64.5618 31.3361C63.5482 31.7049 62.436 31.8893 61.2253 31.8893ZM61.2253 27.9754C61.6899 27.9754 62.1193 27.8934 62.5134 27.7295C62.9217 27.5656 63.2737 27.3333 63.5693 27.0328C63.879 26.7186 64.1183 26.3429 64.2873 25.9057C64.4562 25.4549 64.5407 24.9495 64.5407 24.3893C64.5407 23.8292 64.4562 23.3306 64.2873 22.8934C64.1183 22.4426 63.879 22.0669 63.5693 21.7664C63.2737 21.4522 62.9217 21.2131 62.5134 21.0492C62.1193 20.8852 61.6899 20.8033 61.2253 20.8033C60.7607 20.8033 60.3243 20.8852 59.916 21.0492C59.5219 21.2131 59.1699 21.4522 58.8602 21.7664C58.5646 22.0669 58.3323 22.4426 58.1633 22.8934C57.9944 23.3306 57.9099 23.8292 57.9099 24.3893C57.9099 24.9495 57.9944 25.4549 58.1633 25.9057C58.3323 26.3429 58.5646 26.7186 58.8602 27.0328C59.1699 27.3333 59.5219 27.5656 59.916 27.7295C60.3243 27.8934 60.7607 27.9754 61.2253 27.9754Z" fill="#0C0C0C"/>
</svg>
